<svg xmlns="http://www.w3.org/2000/svg" xmlns:v="https://svgstorm.com"
viewBox = "0 0 500 500"
width="500"
height="500">
<g fill="None" fill-opacity="0.0" stroke="#FEB200" stroke-opacity="1.00" stroke-width="0.3"><path d="
M 0.00 500.00 
L 500.00 500.00
L 500.00 0.00
L 0.00 0.00
L 0.00 500.00
M 272.00 201.00 
C 276.17 204.11 281.19 205.77 280.00 213.00 C 278.81 220.23 280.89 225.46 277.22 231.22 C 273.55 236.99 273.62 241.02 276.00 247.00
C 290.16 245.78 281.17 231.30 289.25 224.25 C 297.32 217.20 305.66 232.06 308.00 239.00
C 312.84 233.52 325.09 217.40 330.00 232.00
C 340.28 221.93 344.99 242.63 353.00 237.00
C 349.53 231.56 353.88 219.10 362.00 222.00 C 370.12 224.90 363.55 235.18 360.00 239.00
C 364.09 244.11 376.52 230.79 375.21 238.23 C 373.90 245.68 360.30 245.52 357.00 241.00
C 349.56 244.72 346.13 245.25 341.08 236.92 C 336.03 228.59 331.55 244.04 326.00 243.00
C 326.33 238.81 325.77 234.92 325.00 231.00
C 316.67 230.74 310.42 252.53 303.00 238.00
C 299.98 243.47 293.75 243.99 289.00 240.00
C 289.78 248.25 275.35 257.49 271.25 247.75 C 267.14 238.01 268.39 228.29 267.00 218.00
C 259.69 224.89 264.15 236.72 263.00 247.00 C 261.85 257.28 264.06 269.49 264.00 279.00
C 264.54 276.64 264.29 273.10 267.00 272.00
C 269.04 276.06 271.42 282.90 270.00 287.00
C 268.43 285.14 269.29 280.90 266.00 281.00
C 265.22 282.37 263.80 290.25 262.00 285.00
C 259.42 278.07 263.32 268.36 262.00 261.00 C 260.68 253.64 262.93 244.36 262.00 237.00 C 261.07 229.64 264.86 221.42 257.75 217.25 C 250.64 213.07 255.85 205.94 254.93 199.93 C 254.01 193.92 254.29 186.56 254.00 180.00
C 256.05 182.50 255.09 188.89 260.00 189.00
C 257.43 185.10 259.86 180.74 261.00 177.00
C 266.17 176.92 267.19 185.23 265.00 189.00
C 268.91 188.81 269.76 184.11 270.00 181.00
C 273.36 186.84 267.89 197.23 272.00 201.00
M 174.00 214.00 
C 176.37 215.36 173.05 221.19 170.00 219.00 C 166.94 216.80 170.94 212.25 174.00 214.00
M 236.00 214.00 
C 238.56 216.56 233.72 221.30 230.78 218.22 C 227.83 215.14 234.17 212.17 236.00 214.00
M 148.00 244.00 
C 146.05 242.05 147.94 239.38 147.00 237.00
C 143.72 231.63 143.73 246.35 138.75 246.75 C 133.78 247.15 137.57 235.59 137.00 231.00
C 132.12 233.95 122.00 242.60 126.25 233.25 C 130.51 223.91 141.33 224.27 142.00 233.00
C 143.57 226.33 152.41 225.92 151.00 234.00
C 154.88 232.46 154.75 223.68 160.08 224.08 C 165.40 224.47 164.76 234.28 166.00 238.00
C 170.74 237.87 168.78 231.77 168.00 229.00
C 175.11 223.90 172.79 243.61 180.08 239.07 C 187.36 234.53 184.60 230.07 191.75 224.75 C 198.90 219.43 201.21 226.56 203.00 234.00 C 204.79 241.44 214.15 226.06 209.00 221.00
C 214.67 223.79 219.32 217.47 224.67 220.33 C 230.02 223.19 221.39 231.73 226.78 236.22 C 232.17 240.71 227.57 231.49 230.78 228.78 C 233.99 226.07 235.15 235.44 237.31 238.69 C 239.46 241.95 246.25 234.42 249.00 235.00
C 249.95 242.87 237.24 247.64 233.00 241.00
C 223.22 247.86 219.39 232.34 221.00 225.00
C 209.22 223.79 217.42 243.92 203.00 241.00
C 202.66 246.30 194.24 252.91 189.31 247.69 C 184.37 242.47 193.54 235.36 199.00 237.00
C 199.21 233.44 197.55 230.40 197.00 227.00
C 189.26 230.96 182.99 252.00 172.00 241.00
C 169.43 243.12 166.51 244.59 163.00 244.00
C 161.10 239.93 160.72 234.79 159.00 231.00
C 155.16 234.67 154.37 246.31 148.00 244.00
M 167.00 276.00 
C 168.26 274.07 170.00 272.09 172.00 271.00
C 166.05 276.43 170.16 281.08 173.00 287.00
C 169.90 286.19 168.90 281.59 167.00 279.00
C 164.41 280.64 167.66 285.43 165.00 287.00
C 162.75 282.58 164.61 276.18 164.00 271.00
C 167.54 270.30 164.59 275.29 167.00 276.00
M 315.00 276.00 
C 309.86 271.26 309.05 275.85 314.25 280.75 C 319.45 285.65 304.99 291.09 308.00 281.00
C 308.80 282.57 313.47 287.97 313.64 283.30 C 313.80 278.62 306.85 279.03 308.34 274.32 C 309.83 269.61 315.53 271.50 315.00 276.00
M 323.00 274.00 
C 322.55 276.28 323.10 278.76 326.00 278.00
C 321.70 281.16 323.18 284.59 327.00 287.00
C 325.33 287.00 323.67 287.00 322.00 287.00
C 319.83 285.47 320.33 273.67 322.00 272.00
C 326.13 267.87 330.47 275.62 323.00 274.00
M 358.00 274.00 
C 357.55 276.28 358.10 278.76 361.00 278.00
C 356.70 281.16 358.18 284.59 362.00 287.00
C 360.33 287.00 358.67 287.00 357.00 287.00
C 354.83 285.47 355.33 273.67 357.00 272.00
C 361.13 267.87 365.47 275.62 358.00 274.00
M 137.00 272.00 
C 142.88 269.51 149.16 280.65 143.74 285.74 C 138.33 290.83 134.31 277.55 137.00 272.00
M 155.00 272.00 
C 156.10 276.65 159.21 282.71 157.00 287.00
C 156.67 279.72 151.73 280.95 151.00 287.00
C 150.37 283.17 150.72 274.09 155.00 272.00
M 185.00 272.00 
C 181.21 271.39 176.79 277.85 183.00 278.00
C 178.55 281.34 180.06 284.83 185.00 287.00
C 175.96 290.76 175.86 268.27 185.00 272.00
M 198.00 287.00 
C 194.16 282.31 193.37 279.62 192.00 287.00
C 189.76 282.91 191.60 276.84 191.00 272.00
C 202.22 270.05 194.92 281.64 198.00 287.00
M 211.00 272.00 
C 208.29 276.53 208.38 282.44 207.00 287.00
C 205.66 282.38 205.39 276.65 203.00 272.00
C 206.73 275.74 207.19 275.79 211.00 272.00
M 233.00 277.00 
C 231.80 275.42 230.27 272.91 228.00 275.00
C 227.85 277.64 233.32 279.37 228.00 280.00
C 226.00 283.74 231.42 288.82 232.00 283.00
C 227.72 281.97 233.03 280.25 236.00 281.00
C 234.50 283.11 232.79 290.46 227.78 286.22 C 222.76 281.98 230.58 263.88 233.00 277.00
M 254.00 287.00 
C 249.68 284.84 253.09 276.56 252.00 272.00
C 256.85 270.48 259.87 273.51 259.00 278.00 C 258.13 282.49 252.15 281.21 254.00 287.00
M 278.00 279.00 
C 278.04 281.11 280.30 283.70 278.00 286.00
C 278.04 285.85 277.70 273.16 274.00 272.00
C 276.52 272.56 280.30 270.81 282.00 273.00
C 278.12 271.99 277.54 276.21 278.00 279.00
M 288.00 286.00 
C 285.40 283.40 287.04 274.78 288.00 272.00
C 290.55 274.19 288.43 286.43 288.00 286.00
M 298.00 273.00 
C 296.27 278.37 303.69 278.84 302.97 284.03 C 302.26 289.21 293.16 286.92 296.00 281.00
C 297.23 282.61 297.71 286.02 301.00 285.00
C 302.65 280.55 292.36 278.10 296.33 273.33 C 300.31 268.55 305.08 278.99 298.00 273.00
M 341.00 287.00 
C 337.16 282.31 336.37 279.62 335.00 287.00
C 332.76 282.91 334.60 276.84 334.00 272.00
C 345.17 270.50 337.76 281.69 341.00 287.00
M 349.00 287.00 
C 347.40 283.07 347.30 275.86 349.00 272.00
C 350.60 275.93 350.70 283.14 349.00 287.00 Z"/>
</g>
<g fill="None" fill-opacity="0.0" stroke="#C67E19" stroke-opacity="1.00" stroke-width="0.3"><path d="
M 262.00 285.00 
C 261.95 284.64 263.77 280.01 264.00 279.00
C 264.06 269.49 261.85 257.28 263.00 247.00 C 264.15 236.72 259.69 224.89 267.00 218.00
C 268.13 216.94 269.03 215.14 270.00 214.00
C 269.74 213.88 269.04 213.22 269.00 213.00
C 268.35 214.01 267.75 214.26 267.00 215.00
C 265.84 216.13 265.19 218.52 263.00 218.00
C 262.81 215.22 264.44 212.19 267.00 211.00
C 268.06 210.32 268.18 208.56 270.00 209.00
C 270.00 210.00 270.00 211.00 270.00 212.00
C 270.92 211.23 270.36 210.80 271.00 210.00
C 269.12 206.72 271.94 204.22 272.00 201.00
C 267.89 197.23 273.36 186.84 270.00 181.00
C 269.76 184.11 268.91 188.81 265.00 189.00
C 267.19 185.23 266.17 176.92 261.00 177.00
C 259.86 180.74 257.43 185.10 260.00 189.00
C 255.09 188.89 256.05 182.50 254.00 180.00
C 254.29 186.56 254.01 193.92 254.93 199.93 C 255.85 205.94 250.64 213.07 257.75 217.25 C 264.86 221.42 261.07 229.64 262.00 237.00 C 262.93 244.36 260.68 253.64 262.00 261.00 C 263.32 268.36 259.42 278.07 262.00 285.00
M 263.00 179.00 
C 265.60 182.31 265.48 186.69 263.00 190.00
C 258.98 187.96 258.98 181.01 263.00 179.00
M 262.00 198.00 
C 258.77 195.51 254.74 192.47 255.00 188.00
C 258.71 190.08 262.89 193.03 262.00 198.00
M 270.00 188.00 
C 270.27 192.38 266.18 195.63 263.00 198.00
C 261.96 192.89 266.62 190.50 270.00 188.00
M 262.00 204.00 
C 258.26 203.12 254.84 198.95 255.00 195.00
C 258.74 195.88 262.16 200.05 262.00 204.00
M 270.00 195.00 
C 269.82 198.95 267.51 203.82 263.00 204.00
C 262.85 200.11 266.26 195.81 270.00 195.00
M 262.00 211.00 
C 258.26 210.12 254.84 205.95 255.00 202.00
C 258.51 203.05 262.77 206.84 262.00 211.00
M 269.00 204.00 
C 270.45 205.54 269.16 206.62 268.00 208.00
C 267.21 209.34 264.44 210.86 263.00 211.00
C 262.39 207.86 266.34 202.42 269.00 204.00
M 262.00 218.00 
C 258.26 217.12 254.84 212.95 255.00 209.00
C 258.51 210.05 262.77 213.84 262.00 218.00 Z"/>
</g>
<g fill="None" fill-opacity="0.0" stroke="#F7AC04" stroke-opacity="1.00" stroke-width="0.3"><path d="
M 263.00 179.00 
C 258.98 181.01 258.98 187.96 263.00 190.00
C 265.48 186.69 265.60 182.31 263.00 179.00 Z"/>
</g>
<g fill="None" fill-opacity="0.0" stroke="#F8AD03" stroke-opacity="1.00" stroke-width="0.3"><path d="
M 262.00 198.00 
C 262.89 193.03 258.71 190.08 255.00 188.00
C 254.74 192.47 258.77 195.51 262.00 198.00 Z"/>
</g>
<g fill="None" fill-opacity="0.0" stroke="#F7AD03" stroke-opacity="1.00" stroke-width="0.3"><path d="
M 270.00 188.00 
C 266.62 190.50 261.96 192.89 263.00 198.00
C 266.18 195.63 270.27 192.38 270.00 188.00 Z"/>
</g>
<g fill="None" fill-opacity="0.0" stroke="#F8AD03" stroke-opacity="1.00" stroke-width="0.3"><path d="
M 262.00 204.00 
C 262.16 200.05 258.74 195.88 255.00 195.00
C 254.84 198.95 258.26 203.12 262.00 204.00 Z"/>
</g>
<g fill="None" fill-opacity="0.0" stroke="#F4AA05" stroke-opacity="1.00" stroke-width="0.3"><path d="
M 270.00 195.00 
C 266.26 195.81 262.85 200.11 263.00 204.00
C 267.51 203.82 269.82 198.95 270.00 195.00 Z"/>
</g>
<g fill="None" fill-opacity="0.0" stroke="#020100" stroke-opacity="1.00" stroke-width="0.3"><path d="
M 271.00 210.00 
C 271.20 209.76 272.00 210.00 272.00 210.00
C 272.17 208.13 272.60 206.81 273.00 205.00
C 274.83 205.49 275.18 207.35 275.00 209.00
C 276.29 213.06 275.56 217.10 275.00 221.00
C 274.85 225.01 274.42 228.35 273.00 232.00
C 270.31 226.95 271.11 220.05 271.00 214.00
C 270.54 214.14 270.00 214.00 270.00 214.00
C 269.03 215.14 268.13 216.94 267.00 218.00
C 268.39 228.29 267.14 238.01 271.25 247.75 C 275.35 257.49 289.78 248.25 289.00 240.00
C 293.75 243.99 299.98 243.47 303.00 238.00
C 310.42 252.53 316.67 230.74 325.00 231.00
C 325.77 234.92 326.33 238.81 326.00 243.00
C 331.55 244.04 336.03 228.59 341.08 236.92 C 346.13 245.25 349.56 244.72 357.00 241.00
C 360.30 245.52 373.90 245.68 375.21 238.23 C 376.52 230.79 364.09 244.11 360.00 239.00
C 363.55 235.18 370.12 224.90 362.00 222.00 C 353.88 219.10 349.53 231.56 353.00 237.00
C 344.99 242.63 340.28 221.93 330.00 232.00
C 325.09 217.40 312.84 233.52 308.00 239.00
C 305.66 232.06 297.32 217.20 289.25 224.25 C 281.17 231.30 290.16 245.78 276.00 247.00
C 273.62 241.02 273.55 236.99 277.22 231.22 C 280.89 225.46 278.81 220.23 280.00 213.00 C 281.19 205.77 276.17 204.11 272.00 201.00
C 271.94 204.22 269.12 206.72 271.00 210.00
M 361.00 226.00 
C 361.95 229.39 359.85 231.65 358.00 234.00
C 355.61 231.80 357.08 225.78 361.00 226.00
M 297.00 227.00 
C 300.25 229.22 298.52 240.41 293.26 236.74 C 287.99 233.07 292.07 223.64 297.00 227.00 Z"/>
</g>
<g fill="None" fill-opacity="0.0" stroke="#F8AD04" stroke-opacity="1.00" stroke-width="0.3"><path d="
M 262.00 211.00 
C 262.77 206.84 258.51 203.05 255.00 202.00
C 254.84 205.95 258.26 210.12 262.00 211.00 Z"/>
</g>
<g fill="None" fill-opacity="0.0" stroke="#F7AD02" stroke-opacity="1.00" stroke-width="0.3"><path d="
M 268.00 208.00 
C 268.35 207.42 269.18 204.76 269.00 204.00
C 266.34 202.42 262.39 207.86 263.00 211.00
C 264.44 210.86 267.21 209.34 268.00 208.00 Z"/>
</g>
<g fill="None" fill-opacity="0.0" stroke="#6E480E" stroke-opacity="1.00" stroke-width="0.3"><path d="
M 268.00 208.00 
C 269.16 206.62 270.45 205.54 269.00 204.00
C 269.18 204.76 268.35 207.42 268.00 208.00 Z"/>
</g>
<g fill="None" fill-opacity="0.0" stroke="#E8A301" stroke-opacity="1.00" stroke-width="0.3"><path d="
M 272.00 210.00 
C 271.79 211.31 272.71 213.47 271.00 214.00
C 271.11 220.05 270.31 226.95 273.00 232.00
C 274.42 228.35 274.85 225.01 275.00 221.00
C 275.14 217.25 275.61 212.69 275.00 209.00
C 275.18 207.35 274.83 205.49 273.00 205.00
C 272.60 206.81 272.17 208.13 272.00 210.00 Z"/>
</g>
<g fill="None" fill-opacity="0.0" stroke="#F9AE03" stroke-opacity="1.00" stroke-width="0.3"><path d="
M 262.00 218.00 
C 262.77 213.84 258.51 210.05 255.00 209.00
C 254.84 212.95 258.26 217.12 262.00 218.00 Z"/>
</g>
<g fill="None" fill-opacity="0.0" stroke="#211502" stroke-opacity="1.00" stroke-width="0.3"><path d="
M 267.00 211.00 
C 266.63 212.22 267.30 213.76 267.00 215.00
C 267.75 214.26 268.35 214.01 269.00 213.00
C 269.20 212.69 269.72 212.23 270.00 212.00
C 270.00 211.00 270.00 210.00 270.00 209.00
C 268.18 208.56 268.06 210.32 267.00 211.00 Z"/>
</g>
<g fill="None" fill-opacity="0.0" stroke="#7F5900" stroke-opacity="1.00" stroke-width="0.3"><path d="
M 275.00 221.00 
C 275.56 217.10 276.29 213.06 275.00 209.00
C 275.61 212.69 275.14 217.25 275.00 221.00 Z"/>
</g>
<g fill="None" fill-opacity="0.0" stroke="#6C4809" stroke-opacity="1.00" stroke-width="0.3"><path d="
M 270.00 212.00 
C 269.72 212.23 269.20 212.69 269.00 213.00
C 269.04 213.22 269.74 213.88 270.00 214.00
C 270.00 214.00 270.54 214.14 271.00 214.00
C 272.71 213.47 271.79 211.31 272.00 210.00
C 272.00 210.00 271.20 209.76 271.00 210.00
C 270.36 210.80 270.92 211.23 270.00 212.00 Z"/>
</g>
<g fill="None" fill-opacity="0.0" stroke="#F9AE03" stroke-opacity="1.00" stroke-width="0.3"><path d="
M 267.00 215.00 
C 267.30 213.76 266.63 212.22 267.00 211.00
C 264.44 212.19 262.81 215.22 263.00 218.00
C 265.19 218.52 265.84 216.13 267.00 215.00 Z"/>
</g>
<g fill="None" fill-opacity="0.0" stroke="#000000" stroke-opacity="1.00" stroke-width="0.3"><path d="
M 174.00 214.00 
C 170.94 212.25 166.94 216.80 170.00 219.00 C 173.05 221.19 176.37 215.36 174.00 214.00 Z"/>
</g>
<g fill="None" fill-opacity="0.0" stroke="#050200" stroke-opacity="1.00" stroke-width="0.3"><path d="
M 236.00 214.00 
C 234.17 212.17 227.83 215.14 230.78 218.22 C 233.72 221.30 238.56 216.56 236.00 214.00 Z"/>
</g>
<g fill="None" fill-opacity="0.0" stroke="#010000" stroke-opacity="1.00" stroke-width="0.3"><path d="
M 147.00 237.00 
C 148.09 238.78 146.92 242.47 148.00 244.00
C 154.37 246.31 155.16 234.67 159.00 231.00
C 160.72 234.79 161.10 239.93 163.00 244.00
C 166.51 244.59 169.43 243.12 172.00 241.00
C 182.99 252.00 189.26 230.96 197.00 227.00
C 197.55 230.40 199.21 233.44 199.00 237.00
C 193.54 235.36 184.37 242.47 189.31 247.69 C 194.24 252.91 202.66 246.30 203.00 241.00
C 217.42 243.92 209.22 223.79 221.00 225.00
C 219.39 232.34 223.22 247.86 233.00 241.00
C 237.24 247.64 249.95 242.87 249.00 235.00
C 246.25 234.42 239.46 241.95 237.31 238.69 C 235.15 235.44 233.99 226.07 230.78 228.78 C 227.57 231.49 232.17 240.71 226.78 236.22 C 221.39 231.73 230.02 223.19 224.67 220.33 C 219.32 217.47 214.67 223.79 209.00 221.00
C 214.15 226.06 204.79 241.44 203.00 234.00 C 201.21 226.56 198.90 219.43 191.75 224.75 C 184.60 230.07 187.36 234.53 180.08 239.07 C 172.79 243.61 175.11 223.90 168.00 229.00
C 168.78 231.77 170.74 237.87 166.00 238.00
C 164.76 234.28 165.40 224.47 160.08 224.08 C 154.75 223.68 154.88 232.46 151.00 234.00
C 152.41 225.92 143.57 226.33 142.00 233.00
C 141.33 224.27 130.51 223.91 126.25 233.25 C 122.00 242.60 132.12 233.95 137.00 231.00
C 137.57 235.59 133.78 247.15 138.75 246.75 C 143.73 246.35 143.72 231.63 147.00 237.00
M 198.00 241.00 
C 198.09 243.47 195.42 245.54 193.00 245.00
C 192.12 242.01 195.61 240.78 198.00 241.00 Z"/>
</g>
<g fill="None" fill-opacity="0.0" stroke="#E9A401" stroke-opacity="1.00" stroke-width="0.3"><path d="
M 361.00 226.00 
C 357.08 225.78 355.61 231.80 358.00 234.00
C 359.85 231.65 361.95 229.39 361.00 226.00 Z"/>
</g>
<g fill="None" fill-opacity="0.0" stroke="#F7AD01" stroke-opacity="1.00" stroke-width="0.3"><path d="
M 297.00 227.00 
C 292.07 223.64 287.99 233.07 293.26 236.74 C 298.52 240.41 300.25 229.22 297.00 227.00 Z"/>
</g>
<g fill="None" fill-opacity="0.0" stroke="#6D4D00" stroke-opacity="1.00" stroke-width="0.3"><path d="
M 148.00 244.00 
C 146.92 242.47 148.09 238.78 147.00 237.00
C 147.94 239.38 146.05 242.05 148.00 244.00 Z"/>
</g>
<g fill="None" fill-opacity="0.0" stroke="#D39400" stroke-opacity="1.00" stroke-width="0.3"><path d="
M 198.00 241.00 
C 195.61 240.78 192.12 242.01 193.00 245.00
C 195.42 245.54 198.09 243.47 198.00 241.00 Z"/>
</g>
<g fill="None" fill-opacity="0.0" stroke="#281B00" stroke-opacity="1.00" stroke-width="0.3"><path d="
M 167.00 276.00 
C 164.59 275.29 167.54 270.30 164.00 271.00
C 164.61 276.18 162.75 282.58 165.00 287.00
C 167.66 285.43 164.41 280.64 167.00 279.00
C 168.90 281.59 169.90 286.19 173.00 287.00
C 170.16 281.08 166.05 276.43 172.00 271.00
C 170.00 272.09 168.26 274.07 167.00 276.00 Z"/>
</g>
<g fill="None" fill-opacity="0.0" stroke="#1E1300" stroke-opacity="1.00" stroke-width="0.3"><path d="
M 315.00 276.00 
C 315.53 271.50 309.83 269.61 308.34 274.32 C 306.85 279.03 313.80 278.62 313.64 283.30 C 313.47 287.97 308.80 282.57 308.00 281.00
C 304.99 291.09 319.45 285.65 314.25 280.75 C 309.05 275.85 309.86 271.26 315.00 276.00 Z"/>
</g>
<g fill="None" fill-opacity="0.0" stroke="#BC8401" stroke-opacity="1.00" stroke-width="0.3"><path d="
M 322.00 272.00 
C 323.67 272.00 325.33 272.00 327.00 272.00
C 326.53 273.98 323.40 271.89 323.00 274.00
C 330.47 275.62 326.13 267.87 322.00 272.00 Z"/>
</g>
<g fill="None" fill-opacity="0.0" stroke="#BC8401" stroke-opacity="1.00" stroke-width="0.3"><path d="
M 357.00 272.00 
C 358.67 272.00 360.33 272.00 362.00 272.00
C 361.53 273.98 358.40 271.89 358.00 274.00
C 365.47 275.62 361.13 267.87 357.00 272.00 Z"/>
</g>
<g fill="None" fill-opacity="0.0" stroke="#1F1400" stroke-opacity="1.00" stroke-width="0.3"><path d="
M 137.00 272.00 
C 134.31 277.55 138.33 290.83 143.74 285.74 C 149.16 280.65 142.88 269.51 137.00 272.00
M 142.00 273.00 
C 144.40 273.87 142.29 279.26 139.97 277.97 C 137.66 276.68 138.84 271.85 142.00 273.00
M 142.00 280.00 
C 144.57 281.02 142.60 286.57 139.99 284.99 C 137.38 283.41 139.11 278.85 142.00 280.00 Z"/>
</g>
<g fill="None" fill-opacity="0.0" stroke="#1B1100" stroke-opacity="1.00" stroke-width="0.3"><path d="
M 155.00 272.00 
C 150.72 274.09 150.37 283.17 151.00 287.00
C 151.73 280.95 156.67 279.72 157.00 287.00
C 159.21 282.71 156.10 276.65 155.00 272.00
M 155.00 276.00 
C 156.45 282.19 150.23 278.37 155.00 276.00 Z"/>
</g>
<g fill="None" fill-opacity="0.0" stroke="#0D0700" stroke-opacity="1.00" stroke-width="0.3"><path d="
M 185.00 272.00 
C 175.86 268.27 175.96 290.76 185.00 287.00
C 180.06 284.83 178.55 281.34 183.00 278.00
C 176.79 277.85 181.21 271.39 185.00 272.00 Z"/>
</g>
<g fill="None" fill-opacity="0.0" stroke="#1E1400" stroke-opacity="1.00" stroke-width="0.3"><path d="
M 198.00 287.00 
C 194.92 281.64 202.22 270.05 191.00 272.00
C 191.60 276.84 189.76 282.91 192.00 287.00
C 193.37 279.62 194.16 282.31 198.00 287.00
M 193.00 280.00 
C 190.15 268.62 200.94 276.78 193.00 280.00 Z"/>
</g>
<g fill="None" fill-opacity="0.0" stroke="#2B1D00" stroke-opacity="1.00" stroke-width="0.3"><path d="
M 211.00 272.00 
C 207.19 275.79 206.73 275.74 203.00 272.00
C 205.39 276.65 205.66 282.38 207.00 287.00
C 208.38 282.44 208.29 276.53 211.00 272.00 Z"/>
</g>
<g fill="None" fill-opacity="0.0" stroke="#1E1300" stroke-opacity="1.00" stroke-width="0.3"><path d="
M 233.00 277.00 
C 230.58 263.88 222.76 281.98 227.78 286.22 C 232.79 290.46 234.50 283.11 236.00 281.00
C 233.03 280.25 227.72 281.97 232.00 283.00
C 231.42 288.82 226.00 283.74 228.00 280.00
C 233.32 279.37 227.85 277.64 228.00 275.00
C 230.27 272.91 231.80 275.42 233.00 277.00 Z"/>
</g>
<g fill="None" fill-opacity="0.0" stroke="#130A00" stroke-opacity="1.00" stroke-width="0.3"><path d="
M 254.00 287.00 
C 252.15 281.21 258.13 282.49 259.00 278.00 C 259.87 273.51 256.85 270.48 252.00 272.00
C 253.09 276.56 249.68 284.84 254.00 287.00
M 257.00 278.00 
C 255.18 284.50 249.18 271.99 256.00 273.00
C 258.94 273.44 257.79 276.74 257.00 278.00 Z"/>
</g>
<g fill="None" fill-opacity="0.0" stroke="#1F1400" stroke-opacity="1.00" stroke-width="0.3"><path d="
M 264.00 279.00 
C 263.77 280.01 261.95 284.64 262.00 285.00
C 263.80 290.25 265.22 282.37 266.00 281.00
C 269.29 280.90 268.43 285.14 270.00 287.00
C 271.42 282.90 269.04 276.06 267.00 272.00
C 264.29 273.10 264.54 276.64 264.00 279.00
M 267.00 276.00 
C 270.51 280.86 263.30 279.86 267.00 276.00 Z"/>
</g>
<g fill="None" fill-opacity="0.0" stroke="#010000" stroke-opacity="1.00" stroke-width="0.3"><path d="
M 278.00 286.00 
C 278.57 283.93 277.85 281.16 278.00 279.00
C 277.54 276.21 278.12 271.99 282.00 273.00
C 280.30 270.81 276.52 272.56 274.00 272.00
C 277.70 273.16 278.04 285.85 278.00 286.00 Z"/>
</g>
<g fill="None" fill-opacity="0.0" stroke="#7D5800" stroke-opacity="1.00" stroke-width="0.3"><path d="
M 288.00 286.00 
C 286.62 281.78 289.03 276.33 288.00 272.00
C 287.04 274.78 285.40 283.40 288.00 286.00 Z"/>
</g>
<g fill="None" fill-opacity="0.0" stroke="#000000" stroke-opacity="1.00" stroke-width="0.3"><path d="
M 288.00 286.00 
C 288.43 286.43 290.55 274.19 288.00 272.00
C 289.03 276.33 286.62 281.78 288.00 286.00 Z"/>
</g>
<g fill="None" fill-opacity="0.0" stroke="#1F1400" stroke-opacity="1.00" stroke-width="0.3"><path d="
M 298.00 273.00 
C 305.08 278.99 300.31 268.55 296.33 273.33 C 292.36 278.10 302.65 280.55 301.00 285.00
C 297.71 286.02 297.23 282.61 296.00 281.00
C 293.16 286.92 302.26 289.21 302.97 284.03 C 303.69 278.84 296.27 278.37 298.00 273.00 Z"/>
</g>
<g fill="None" fill-opacity="0.0" stroke="#614400" stroke-opacity="1.00" stroke-width="0.3"><path d="
M 322.00 287.00 
C 322.00 282.00 322.00 277.00 322.00 272.00
C 320.33 273.67 319.83 285.47 322.00 287.00 Z"/>
</g>
<g fill="None" fill-opacity="0.0" stroke="#0C0600" stroke-opacity="1.00" stroke-width="0.3"><path d="
M 322.00 287.00 
C 323.67 287.00 325.33 287.00 327.00 287.00
C 323.18 284.59 321.70 281.16 326.00 278.00
C 323.10 278.76 322.55 276.28 323.00 274.00
C 323.40 271.89 326.53 273.98 327.00 272.00
C 325.33 272.00 323.67 272.00 322.00 272.00
C 322.00 277.00 322.00 282.00 322.00 287.00 Z"/>
</g>
<g fill="None" fill-opacity="0.0" stroke="#160D00" stroke-opacity="1.00" stroke-width="0.3"><path d="
M 341.00 287.00 
C 337.76 281.69 345.17 270.50 334.00 272.00
C 334.60 276.84 332.76 282.91 335.00 287.00
C 336.37 279.62 337.16 282.31 341.00 287.00
M 338.00 273.00 
C 340.26 274.03 339.23 280.79 336.30 279.64 C 333.37 278.49 335.14 271.70 338.00 273.00 Z"/>
</g>
<g fill="None" fill-opacity="0.0" stroke="#020100" stroke-opacity="1.00" stroke-width="0.3"><path d="
M 349.00 287.00 
C 349.00 282.00 349.00 277.00 349.00 272.00
C 347.30 275.86 347.40 283.07 349.00 287.00 Z"/>
</g>
<g fill="None" fill-opacity="0.0" stroke="#654600" stroke-opacity="1.00" stroke-width="0.3"><path d="
M 349.00 287.00 
C 350.70 283.14 350.60 275.93 349.00 272.00
C 349.00 277.00 349.00 282.00 349.00 287.00 Z"/>
</g>
<g fill="None" fill-opacity="0.0" stroke="#614400" stroke-opacity="1.00" stroke-width="0.3"><path d="
M 357.00 287.00 
C 357.00 282.00 357.00 277.00 357.00 272.00
C 355.33 273.67 354.83 285.47 357.00 287.00 Z"/>
</g>
<g fill="None" fill-opacity="0.0" stroke="#0C0600" stroke-opacity="1.00" stroke-width="0.3"><path d="
M 357.00 287.00 
C 358.67 287.00 360.33 287.00 362.00 287.00
C 358.18 284.59 356.70 281.16 361.00 278.00
C 358.10 278.76 357.55 276.28 358.00 274.00
C 358.40 271.89 361.53 273.98 362.00 272.00
C 360.33 272.00 358.67 272.00 357.00 272.00
C 357.00 277.00 357.00 282.00 357.00 287.00 Z"/>
</g>
<g fill="None" fill-opacity="0.0" stroke="#E6A101" stroke-opacity="1.00" stroke-width="0.3"><path d="
M 142.00 273.00 
C 138.84 271.85 137.66 276.68 139.97 277.97 C 142.29 279.26 144.40 273.87 142.00 273.00 Z"/>
</g>
<g fill="None" fill-opacity="0.0" stroke="#E8A301" stroke-opacity="1.00" stroke-width="0.3"><path d="
M 193.00 280.00 
C 200.94 276.78 190.15 268.62 193.00 280.00 Z"/>
</g>
<g fill="None" fill-opacity="0.0" stroke="#DE9C01" stroke-opacity="1.00" stroke-width="0.3"><path d="
M 257.00 278.00 
C 257.30 276.93 257.09 273.66 256.00 273.00
C 249.18 271.99 255.18 284.50 257.00 278.00 Z"/>
</g>
<g fill="None" fill-opacity="0.0" stroke="#5A3F00" stroke-opacity="1.00" stroke-width="0.3"><path d="
M 257.00 278.00 
C 257.79 276.74 258.94 273.44 256.00 273.00
C 257.09 273.66 257.30 276.93 257.00 278.00 Z"/>
</g>
<g fill="None" fill-opacity="0.0" stroke="#D59501" stroke-opacity="1.00" stroke-width="0.3"><path d="
M 338.00 273.00 
C 335.14 271.70 333.37 278.49 336.30 279.64 C 339.23 280.79 340.26 274.03 338.00 273.00 Z"/>
</g>
<g fill="None" fill-opacity="0.0" stroke="#BF8601" stroke-opacity="1.00" stroke-width="0.3"><path d="
M 155.00 276.00 
C 150.23 278.37 156.45 282.19 155.00 276.00 Z"/>
</g>
<g fill="None" fill-opacity="0.0" stroke="#B98100" stroke-opacity="1.00" stroke-width="0.3"><path d="
M 267.00 276.00 
C 263.30 279.86 270.51 280.86 267.00 276.00 Z"/>
</g>
<g fill="None" fill-opacity="0.0" stroke="#865E01" stroke-opacity="1.00" stroke-width="0.3"><path d="
M 278.00 286.00 
C 280.30 283.70 278.04 281.11 278.00 279.00
C 277.85 281.16 278.57 283.93 278.00 286.00 Z"/>
</g>
<g fill="None" fill-opacity="0.0" stroke="#F3AA01" stroke-opacity="1.00" stroke-width="0.3"><path d="
M 142.00 280.00 
C 139.11 278.85 137.38 283.41 139.99 284.99 C 142.60 286.57 144.57 281.02 142.00 280.00 Z"/>
</g>
<g fill="#FEB200" fill-opacity="1.00" stroke="None">
<path d="
M 0.00 500.00 
L 500.00 500.00
L 500.00 0.00
L 0.00 0.00
L 0.00 500.00
M 272.00 201.00 
C 276.17 204.11 281.19 205.77 280.00 213.00 C 278.81 220.23 280.89 225.46 277.22 231.22 C 273.55 236.99 273.62 241.02 276.00 247.00
C 290.16 245.78 281.17 231.30 289.25 224.25 C 297.32 217.20 305.66 232.06 308.00 239.00
C 312.84 233.52 325.09 217.40 330.00 232.00
C 340.28 221.93 344.99 242.63 353.00 237.00
C 349.53 231.56 353.88 219.10 362.00 222.00 C 370.12 224.90 363.55 235.18 360.00 239.00
C 364.09 244.11 376.52 230.79 375.21 238.23 C 373.90 245.68 360.30 245.52 357.00 241.00
C 349.56 244.72 346.13 245.25 341.08 236.92 C 336.03 228.59 331.55 244.04 326.00 243.00
C 326.33 238.81 325.77 234.92 325.00 231.00
C 316.67 230.74 310.42 252.53 303.00 238.00
C 299.98 243.47 293.75 243.99 289.00 240.00
C 289.78 248.25 275.35 257.49 271.25 247.75 C 267.14 238.01 268.39 228.29 267.00 218.00
C 259.69 224.89 264.15 236.72 263.00 247.00 C 261.85 257.28 264.06 269.49 264.00 279.00
C 264.54 276.64 264.29 273.10 267.00 272.00
C 269.04 276.06 271.42 282.90 270.00 287.00
C 268.43 285.14 269.29 280.90 266.00 281.00
C 265.22 282.37 263.80 290.25 262.00 285.00
C 259.42 278.07 263.32 268.36 262.00 261.00 C 260.68 253.64 262.93 244.36 262.00 237.00 C 261.07 229.64 264.86 221.42 257.75 217.25 C 250.64 213.07 255.85 205.94 254.93 199.93 C 254.01 193.92 254.29 186.56 254.00 180.00
C 256.05 182.50 255.09 188.89 260.00 189.00
C 257.43 185.10 259.86 180.74 261.00 177.00
C 266.17 176.92 267.19 185.23 265.00 189.00
C 268.91 188.81 269.76 184.11 270.00 181.00
C 273.36 186.84 267.89 197.23 272.00 201.00
M 174.00 214.00 
C 176.37 215.36 173.05 221.19 170.00 219.00 C 166.94 216.80 170.94 212.25 174.00 214.00
M 236.00 214.00 
C 238.56 216.56 233.72 221.30 230.78 218.22 C 227.83 215.14 234.17 212.17 236.00 214.00
M 148.00 244.00 
C 146.05 242.05 147.94 239.38 147.00 237.00
C 143.72 231.63 143.73 246.35 138.75 246.75 C 133.78 247.15 137.57 235.59 137.00 231.00
C 132.12 233.95 122.00 242.60 126.25 233.25 C 130.51 223.91 141.33 224.27 142.00 233.00
C 143.57 226.33 152.41 225.92 151.00 234.00
C 154.88 232.46 154.75 223.68 160.08 224.08 C 165.40 224.47 164.76 234.28 166.00 238.00
C 170.74 237.87 168.78 231.77 168.00 229.00
C 175.11 223.90 172.79 243.61 180.08 239.07 C 187.36 234.53 184.60 230.07 191.75 224.75 C 198.90 219.43 201.21 226.56 203.00 234.00 C 204.79 241.44 214.15 226.06 209.00 221.00
C 214.67 223.79 219.32 217.47 224.67 220.33 C 230.02 223.19 221.39 231.73 226.78 236.22 C 232.17 240.71 227.57 231.49 230.78 228.78 C 233.99 226.07 235.15 235.44 237.31 238.69 C 239.46 241.95 246.25 234.42 249.00 235.00
C 249.95 242.87 237.24 247.64 233.00 241.00
C 223.22 247.86 219.39 232.34 221.00 225.00
C 209.22 223.79 217.42 243.92 203.00 241.00
C 202.66 246.30 194.24 252.91 189.31 247.69 C 184.37 242.47 193.54 235.36 199.00 237.00
C 199.21 233.44 197.55 230.40 197.00 227.00
C 189.26 230.96 182.99 252.00 172.00 241.00
C 169.43 243.12 166.51 244.59 163.00 244.00
C 161.10 239.93 160.72 234.79 159.00 231.00
C 155.16 234.67 154.37 246.31 148.00 244.00
M 167.00 276.00 
C 168.26 274.07 170.00 272.09 172.00 271.00
C 166.05 276.43 170.16 281.08 173.00 287.00
C 169.90 286.19 168.90 281.59 167.00 279.00
C 164.41 280.64 167.66 285.43 165.00 287.00
C 162.75 282.58 164.61 276.18 164.00 271.00
C 167.54 270.30 164.59 275.29 167.00 276.00
M 315.00 276.00 
C 309.86 271.26 309.05 275.85 314.25 280.75 C 319.45 285.65 304.99 291.09 308.00 281.00
C 308.80 282.57 313.47 287.97 313.64 283.30 C 313.80 278.62 306.85 279.03 308.34 274.32 C 309.83 269.61 315.53 271.50 315.00 276.00
M 323.00 274.00 
C 322.55 276.28 323.10 278.76 326.00 278.00
C 321.70 281.16 323.18 284.59 327.00 287.00
C 325.33 287.00 323.67 287.00 322.00 287.00
C 319.83 285.47 320.33 273.67 322.00 272.00
C 326.13 267.87 330.47 275.62 323.00 274.00
M 358.00 274.00 
C 357.55 276.28 358.10 278.76 361.00 278.00
C 356.70 281.16 358.18 284.59 362.00 287.00
C 360.33 287.00 358.67 287.00 357.00 287.00
C 354.83 285.47 355.33 273.67 357.00 272.00
C 361.13 267.87 365.47 275.62 358.00 274.00
M 137.00 272.00 
C 142.88 269.51 149.16 280.65 143.74 285.74 C 138.33 290.83 134.31 277.55 137.00 272.00
M 155.00 272.00 
C 156.10 276.65 159.21 282.71 157.00 287.00
C 156.67 279.72 151.73 280.95 151.00 287.00
C 150.37 283.17 150.72 274.09 155.00 272.00
M 185.00 272.00 
C 181.21 271.39 176.79 277.85 183.00 278.00
C 178.55 281.34 180.06 284.83 185.00 287.00
C 175.96 290.76 175.86 268.27 185.00 272.00
M 198.00 287.00 
C 194.16 282.31 193.37 279.62 192.00 287.00
C 189.76 282.91 191.60 276.84 191.00 272.00
C 202.22 270.05 194.92 281.64 198.00 287.00
M 211.00 272.00 
C 208.29 276.53 208.38 282.44 207.00 287.00
C 205.66 282.38 205.39 276.65 203.00 272.00
C 206.73 275.74 207.19 275.79 211.00 272.00
M 233.00 277.00 
C 231.80 275.42 230.27 272.91 228.00 275.00
C 227.85 277.64 233.32 279.37 228.00 280.00
C 226.00 283.74 231.42 288.82 232.00 283.00
C 227.72 281.97 233.03 280.25 236.00 281.00
C 234.50 283.11 232.79 290.46 227.78 286.22 C 222.76 281.98 230.58 263.88 233.00 277.00
M 254.00 287.00 
C 249.68 284.84 253.09 276.56 252.00 272.00
C 256.85 270.48 259.87 273.51 259.00 278.00 C 258.13 282.49 252.15 281.21 254.00 287.00
M 278.00 279.00 
C 278.04 281.11 280.30 283.70 278.00 286.00
C 278.04 285.85 277.70 273.16 274.00 272.00
C 276.52 272.56 280.30 270.81 282.00 273.00
C 278.12 271.99 277.54 276.21 278.00 279.00
M 288.00 286.00 
C 285.40 283.40 287.04 274.78 288.00 272.00
C 290.55 274.19 288.43 286.43 288.00 286.00
M 298.00 273.00 
C 296.27 278.37 303.69 278.84 302.97 284.03 C 302.26 289.21 293.16 286.92 296.00 281.00
C 297.23 282.61 297.71 286.02 301.00 285.00
C 302.65 280.55 292.36 278.10 296.33 273.33 C 300.31 268.55 305.08 278.99 298.00 273.00
M 341.00 287.00 
C 337.16 282.31 336.37 279.62 335.00 287.00
C 332.76 282.91 334.60 276.84 334.00 272.00
C 345.17 270.50 337.76 281.69 341.00 287.00
M 349.00 287.00 
C 347.40 283.07 347.30 275.86 349.00 272.00
C 350.60 275.93 350.70 283.14 349.00 287.00 Z"/>
</g>
<g fill="#C67E19" fill-opacity="1.00" stroke="None">
<path d="
M 262.00 285.00 
C 261.95 284.64 263.77 280.01 264.00 279.00
C 264.06 269.49 261.85 257.28 263.00 247.00 C 264.15 236.72 259.69 224.89 267.00 218.00
C 268.13 216.94 269.03 215.14 270.00 214.00
C 269.74 213.88 269.04 213.22 269.00 213.00
C 268.35 214.01 267.75 214.26 267.00 215.00
C 265.84 216.13 265.19 218.52 263.00 218.00
C 262.81 215.22 264.44 212.19 267.00 211.00
C 268.06 210.32 268.18 208.56 270.00 209.00
C 270.00 210.00 270.00 211.00 270.00 212.00
C 270.92 211.23 270.36 210.80 271.00 210.00
C 269.12 206.72 271.94 204.22 272.00 201.00
C 267.89 197.23 273.36 186.84 270.00 181.00
C 269.76 184.11 268.91 188.81 265.00 189.00
C 267.19 185.23 266.17 176.92 261.00 177.00
C 259.86 180.74 257.43 185.10 260.00 189.00
C 255.09 188.89 256.05 182.50 254.00 180.00
C 254.29 186.56 254.01 193.92 254.93 199.93 C 255.85 205.94 250.64 213.07 257.75 217.25 C 264.86 221.42 261.07 229.64 262.00 237.00 C 262.93 244.36 260.68 253.64 262.00 261.00 C 263.32 268.36 259.42 278.07 262.00 285.00
M 263.00 179.00 
C 265.60 182.31 265.48 186.69 263.00 190.00
C 258.98 187.96 258.98 181.01 263.00 179.00
M 262.00 198.00 
C 258.77 195.51 254.74 192.47 255.00 188.00
C 258.71 190.08 262.89 193.03 262.00 198.00
M 270.00 188.00 
C 270.27 192.38 266.18 195.63 263.00 198.00
C 261.96 192.89 266.62 190.50 270.00 188.00
M 262.00 204.00 
C 258.26 203.12 254.84 198.95 255.00 195.00
C 258.74 195.88 262.16 200.05 262.00 204.00
M 270.00 195.00 
C 269.82 198.95 267.51 203.82 263.00 204.00
C 262.85 200.11 266.26 195.81 270.00 195.00
M 262.00 211.00 
C 258.26 210.12 254.84 205.95 255.00 202.00
C 258.51 203.05 262.77 206.84 262.00 211.00
M 269.00 204.00 
C 270.45 205.54 269.16 206.62 268.00 208.00
C 267.21 209.34 264.44 210.86 263.00 211.00
C 262.39 207.86 266.34 202.42 269.00 204.00
M 262.00 218.00 
C 258.26 217.12 254.84 212.95 255.00 209.00
C 258.51 210.05 262.77 213.84 262.00 218.00 Z"/>
</g>
<g fill="#F7AC04" fill-opacity="1.00" stroke="None">
<path d="
M 263.00 179.00 
C 258.98 181.01 258.98 187.96 263.00 190.00
C 265.48 186.69 265.60 182.31 263.00 179.00 Z"/>
</g>
<g fill="#F8AD03" fill-opacity="1.00" stroke="None">
<path d="
M 262.00 198.00 
C 262.89 193.03 258.71 190.08 255.00 188.00
C 254.74 192.47 258.77 195.51 262.00 198.00 Z"/>
</g>
<g fill="#F7AD03" fill-opacity="1.00" stroke="None">
<path d="
M 270.00 188.00 
C 266.62 190.50 261.96 192.89 263.00 198.00
C 266.18 195.63 270.27 192.38 270.00 188.00 Z"/>
</g>
<g fill="#F8AD03" fill-opacity="1.00" stroke="None">
<path d="
M 262.00 204.00 
C 262.16 200.05 258.74 195.88 255.00 195.00
C 254.84 198.95 258.26 203.12 262.00 204.00 Z"/>
</g>
<g fill="#F4AA05" fill-opacity="1.00" stroke="None">
<path d="
M 270.00 195.00 
C 266.26 195.81 262.85 200.11 263.00 204.00
C 267.51 203.82 269.82 198.95 270.00 195.00 Z"/>
</g>
<g fill="#020100" fill-opacity="1.00" stroke="None">
<path d="
M 271.00 210.00 
C 271.20 209.76 272.00 210.00 272.00 210.00
C 272.17 208.13 272.60 206.81 273.00 205.00
C 274.83 205.49 275.18 207.35 275.00 209.00
C 276.29 213.06 275.56 217.10 275.00 221.00
C 274.85 225.01 274.42 228.35 273.00 232.00
C 270.31 226.95 271.11 220.05 271.00 214.00
C 270.54 214.14 270.00 214.00 270.00 214.00
C 269.03 215.14 268.13 216.94 267.00 218.00
C 268.39 228.29 267.14 238.01 271.25 247.75 C 275.35 257.49 289.78 248.25 289.00 240.00
C 293.75 243.99 299.98 243.47 303.00 238.00
C 310.42 252.53 316.67 230.74 325.00 231.00
C 325.77 234.92 326.33 238.81 326.00 243.00
C 331.55 244.04 336.03 228.59 341.08 236.92 C 346.13 245.25 349.56 244.72 357.00 241.00
C 360.30 245.52 373.90 245.68 375.21 238.23 C 376.52 230.79 364.09 244.11 360.00 239.00
C 363.55 235.18 370.12 224.90 362.00 222.00 C 353.88 219.10 349.53 231.56 353.00 237.00
C 344.99 242.63 340.28 221.93 330.00 232.00
C 325.09 217.40 312.84 233.52 308.00 239.00
C 305.66 232.06 297.32 217.20 289.25 224.25 C 281.17 231.30 290.16 245.78 276.00 247.00
C 273.62 241.02 273.55 236.99 277.22 231.22 C 280.89 225.46 278.81 220.23 280.00 213.00 C 281.19 205.77 276.17 204.11 272.00 201.00
C 271.94 204.22 269.12 206.72 271.00 210.00
M 361.00 226.00 
C 361.95 229.39 359.85 231.65 358.00 234.00
C 355.61 231.80 357.08 225.78 361.00 226.00
M 297.00 227.00 
C 300.25 229.22 298.52 240.41 293.26 236.74 C 287.99 233.07 292.07 223.64 297.00 227.00 Z"/>
</g>
<g fill="#F8AD04" fill-opacity="1.00" stroke="None">
<path d="
M 262.00 211.00 
C 262.77 206.84 258.51 203.05 255.00 202.00
C 254.84 205.95 258.26 210.12 262.00 211.00 Z"/>
</g>
<g fill="#F7AD02" fill-opacity="1.00" stroke="None">
<path d="
M 268.00 208.00 
C 268.35 207.42 269.18 204.76 269.00 204.00
C 266.34 202.42 262.39 207.86 263.00 211.00
C 264.44 210.86 267.21 209.34 268.00 208.00 Z"/>
</g>
<g fill="#6E480E" fill-opacity="1.00" stroke="None">
<path d="
M 268.00 208.00 
C 269.16 206.62 270.45 205.54 269.00 204.00
C 269.18 204.76 268.35 207.42 268.00 208.00 Z"/>
</g>
<g fill="#E8A301" fill-opacity="1.00" stroke="None">
<path d="
M 272.00 210.00 
C 271.79 211.31 272.71 213.47 271.00 214.00
C 271.11 220.05 270.31 226.95 273.00 232.00
C 274.42 228.35 274.85 225.01 275.00 221.00
C 275.14 217.25 275.61 212.69 275.00 209.00
C 275.18 207.35 274.83 205.49 273.00 205.00
C 272.60 206.81 272.17 208.13 272.00 210.00 Z"/>
</g>
<g fill="#F9AE03" fill-opacity="1.00" stroke="None">
<path d="
M 262.00 218.00 
C 262.77 213.84 258.51 210.05 255.00 209.00
C 254.84 212.95 258.26 217.12 262.00 218.00 Z"/>
</g>
<g fill="#211502" fill-opacity="1.00" stroke="None">
<path d="
M 267.00 211.00 
C 266.63 212.22 267.30 213.76 267.00 215.00
C 267.75 214.26 268.35 214.01 269.00 213.00
C 269.20 212.69 269.72 212.23 270.00 212.00
C 270.00 211.00 270.00 210.00 270.00 209.00
C 268.18 208.56 268.06 210.32 267.00 211.00 Z"/>
</g>
<g fill="#7F5900" fill-opacity="1.00" stroke="None">
<path d="
M 275.00 221.00 
C 275.56 217.10 276.29 213.06 275.00 209.00
C 275.61 212.69 275.14 217.25 275.00 221.00 Z"/>
</g>
<g fill="#6C4809" fill-opacity="1.00" stroke="None">
<path d="
M 270.00 212.00 
C 269.72 212.23 269.20 212.69 269.00 213.00
C 269.04 213.22 269.74 213.88 270.00 214.00
C 270.00 214.00 270.54 214.14 271.00 214.00
C 272.71 213.47 271.79 211.31 272.00 210.00
C 272.00 210.00 271.20 209.76 271.00 210.00
C 270.36 210.80 270.92 211.23 270.00 212.00 Z"/>
</g>
<g fill="#F9AE03" fill-opacity="1.00" stroke="None">
<path d="
M 267.00 215.00 
C 267.30 213.76 266.63 212.22 267.00 211.00
C 264.44 212.19 262.81 215.22 263.00 218.00
C 265.19 218.52 265.84 216.13 267.00 215.00 Z"/>
</g>
<g fill="#000000" fill-opacity="1.00" stroke="None">
<path d="
M 174.00 214.00 
C 170.94 212.25 166.94 216.80 170.00 219.00 C 173.05 221.19 176.37 215.36 174.00 214.00 Z"/>
</g>
<g fill="#050200" fill-opacity="1.00" stroke="None">
<path d="
M 236.00 214.00 
C 234.17 212.17 227.83 215.14 230.78 218.22 C 233.72 221.30 238.56 216.56 236.00 214.00 Z"/>
</g>
<g fill="#010000" fill-opacity="1.00" stroke="None">
<path d="
M 147.00 237.00 
C 148.09 238.78 146.92 242.47 148.00 244.00
C 154.37 246.31 155.16 234.67 159.00 231.00
C 160.72 234.79 161.10 239.93 163.00 244.00
C 166.51 244.59 169.43 243.12 172.00 241.00
C 182.99 252.00 189.26 230.96 197.00 227.00
C 197.55 230.40 199.21 233.44 199.00 237.00
C 193.54 235.36 184.37 242.47 189.31 247.69 C 194.24 252.91 202.66 246.30 203.00 241.00
C 217.42 243.92 209.22 223.79 221.00 225.00
C 219.39 232.34 223.22 247.86 233.00 241.00
C 237.24 247.64 249.95 242.87 249.00 235.00
C 246.25 234.42 239.46 241.95 237.31 238.69 C 235.15 235.44 233.99 226.07 230.78 228.78 C 227.57 231.49 232.17 240.71 226.78 236.22 C 221.39 231.73 230.02 223.19 224.67 220.33 C 219.32 217.47 214.67 223.79 209.00 221.00
C 214.15 226.06 204.79 241.44 203.00 234.00 C 201.21 226.56 198.90 219.43 191.75 224.75 C 184.60 230.07 187.36 234.53 180.08 239.07 C 172.79 243.61 175.11 223.90 168.00 229.00
C 168.78 231.77 170.74 237.87 166.00 238.00
C 164.76 234.28 165.40 224.47 160.08 224.08 C 154.75 223.68 154.88 232.46 151.00 234.00
C 152.41 225.92 143.57 226.33 142.00 233.00
C 141.33 224.27 130.51 223.91 126.25 233.25 C 122.00 242.60 132.12 233.95 137.00 231.00
C 137.57 235.59 133.78 247.15 138.75 246.75 C 143.73 246.35 143.72 231.63 147.00 237.00
M 198.00 241.00 
C 198.09 243.47 195.42 245.54 193.00 245.00
C 192.12 242.01 195.61 240.78 198.00 241.00 Z"/>
</g>
<g fill="#E9A401" fill-opacity="1.00" stroke="None">
<path d="
M 361.00 226.00 
C 357.08 225.78 355.61 231.80 358.00 234.00
C 359.85 231.65 361.95 229.39 361.00 226.00 Z"/>
</g>
<g fill="#F7AD01" fill-opacity="1.00" stroke="None">
<path d="
M 297.00 227.00 
C 292.07 223.64 287.99 233.07 293.26 236.74 C 298.52 240.41 300.25 229.22 297.00 227.00 Z"/>
</g>
<g fill="#6D4D00" fill-opacity="1.00" stroke="None">
<path d="
M 148.00 244.00 
C 146.92 242.47 148.09 238.78 147.00 237.00
C 147.94 239.38 146.05 242.05 148.00 244.00 Z"/>
</g>
<g fill="#D39400" fill-opacity="1.00" stroke="None">
<path d="
M 198.00 241.00 
C 195.61 240.78 192.12 242.01 193.00 245.00
C 195.42 245.54 198.09 243.47 198.00 241.00 Z"/>
</g>
<g fill="#281B00" fill-opacity="1.00" stroke="None">
<path d="
M 167.00 276.00 
C 164.59 275.29 167.54 270.30 164.00 271.00
C 164.61 276.18 162.75 282.58 165.00 287.00
C 167.66 285.43 164.41 280.64 167.00 279.00
C 168.90 281.59 169.90 286.19 173.00 287.00
C 170.16 281.08 166.05 276.43 172.00 271.00
C 170.00 272.09 168.26 274.07 167.00 276.00 Z"/>
</g>
<g fill="#1E1300" fill-opacity="1.00" stroke="None">
<path d="
M 315.00 276.00 
C 315.53 271.50 309.83 269.61 308.34 274.32 C 306.85 279.03 313.80 278.62 313.64 283.30 C 313.47 287.97 308.80 282.57 308.00 281.00
C 304.99 291.09 319.45 285.65 314.25 280.75 C 309.05 275.85 309.86 271.26 315.00 276.00 Z"/>
</g>
<g fill="#BC8401" fill-opacity="1.00" stroke="None">
<path d="
M 322.00 272.00 
C 323.67 272.00 325.33 272.00 327.00 272.00
C 326.53 273.98 323.40 271.89 323.00 274.00
C 330.47 275.62 326.13 267.87 322.00 272.00 Z"/>
</g>
<g fill="#BC8401" fill-opacity="1.00" stroke="None">
<path d="
M 357.00 272.00 
C 358.67 272.00 360.33 272.00 362.00 272.00
C 361.53 273.98 358.40 271.89 358.00 274.00
C 365.47 275.62 361.13 267.87 357.00 272.00 Z"/>
</g>
<g fill="#1F1400" fill-opacity="1.00" stroke="None">
<path d="
M 137.00 272.00 
C 134.31 277.55 138.33 290.83 143.74 285.74 C 149.16 280.65 142.88 269.51 137.00 272.00
M 142.00 273.00 
C 144.40 273.87 142.29 279.26 139.97 277.97 C 137.66 276.68 138.84 271.85 142.00 273.00
M 142.00 280.00 
C 144.57 281.02 142.60 286.57 139.99 284.99 C 137.38 283.41 139.11 278.85 142.00 280.00 Z"/>
</g>
<g fill="#1B1100" fill-opacity="1.00" stroke="None">
<path d="
M 155.00 272.00 
C 150.72 274.09 150.37 283.17 151.00 287.00
C 151.73 280.95 156.67 279.72 157.00 287.00
C 159.21 282.71 156.10 276.65 155.00 272.00
M 155.00 276.00 
C 156.45 282.19 150.23 278.37 155.00 276.00 Z"/>
</g>
<g fill="#0D0700" fill-opacity="1.00" stroke="None">
<path d="
M 185.00 272.00 
C 175.86 268.27 175.96 290.76 185.00 287.00
C 180.06 284.83 178.55 281.34 183.00 278.00
C 176.79 277.85 181.21 271.39 185.00 272.00 Z"/>
</g>
<g fill="#1E1400" fill-opacity="1.00" stroke="None">
<path d="
M 198.00 287.00 
C 194.92 281.64 202.22 270.05 191.00 272.00
C 191.60 276.84 189.76 282.91 192.00 287.00
C 193.37 279.62 194.16 282.31 198.00 287.00
M 193.00 280.00 
C 190.15 268.62 200.94 276.78 193.00 280.00 Z"/>
</g>
<g fill="#2B1D00" fill-opacity="1.00" stroke="None">
<path d="
M 211.00 272.00 
C 207.19 275.79 206.73 275.74 203.00 272.00
C 205.39 276.65 205.66 282.38 207.00 287.00
C 208.38 282.44 208.29 276.53 211.00 272.00 Z"/>
</g>
<g fill="#1E1300" fill-opacity="1.00" stroke="None">
<path d="
M 233.00 277.00 
C 230.58 263.88 222.76 281.98 227.78 286.22 C 232.79 290.46 234.50 283.11 236.00 281.00
C 233.03 280.25 227.72 281.97 232.00 283.00
C 231.42 288.82 226.00 283.74 228.00 280.00
C 233.32 279.37 227.85 277.64 228.00 275.00
C 230.27 272.91 231.80 275.42 233.00 277.00 Z"/>
</g>
<g fill="#130A00" fill-opacity="1.00" stroke="None">
<path d="
M 254.00 287.00 
C 252.15 281.21 258.13 282.49 259.00 278.00 C 259.87 273.51 256.85 270.48 252.00 272.00
C 253.09 276.56 249.68 284.84 254.00 287.00
M 257.00 278.00 
C 255.18 284.50 249.18 271.99 256.00 273.00
C 258.94 273.44 257.79 276.74 257.00 278.00 Z"/>
</g>
<g fill="#1F1400" fill-opacity="1.00" stroke="None">
<path d="
M 264.00 279.00 
C 263.77 280.01 261.95 284.64 262.00 285.00
C 263.80 290.25 265.22 282.37 266.00 281.00
C 269.29 280.90 268.43 285.14 270.00 287.00
C 271.42 282.90 269.04 276.06 267.00 272.00
C 264.29 273.10 264.54 276.64 264.00 279.00
M 267.00 276.00 
C 270.51 280.86 263.30 279.86 267.00 276.00 Z"/>
</g>
<g fill="#010000" fill-opacity="1.00" stroke="None">
<path d="
M 278.00 286.00 
C 278.57 283.93 277.85 281.16 278.00 279.00
C 277.54 276.21 278.12 271.99 282.00 273.00
C 280.30 270.81 276.52 272.56 274.00 272.00
C 277.70 273.16 278.04 285.85 278.00 286.00 Z"/>
</g>
<g fill="#7D5800" fill-opacity="1.00" stroke="None">
<path d="
M 288.00 286.00 
C 286.62 281.78 289.03 276.33 288.00 272.00
C 287.04 274.78 285.40 283.40 288.00 286.00 Z"/>
</g>
<g fill="#000000" fill-opacity="1.00" stroke="None">
<path d="
M 288.00 286.00 
C 288.43 286.43 290.55 274.19 288.00 272.00
C 289.03 276.33 286.62 281.78 288.00 286.00 Z"/>
</g>
<g fill="#1F1400" fill-opacity="1.00" stroke="None">
<path d="
M 298.00 273.00 
C 305.08 278.99 300.31 268.55 296.33 273.33 C 292.36 278.10 302.65 280.55 301.00 285.00
C 297.71 286.02 297.23 282.61 296.00 281.00
C 293.16 286.92 302.26 289.21 302.97 284.03 C 303.69 278.84 296.27 278.37 298.00 273.00 Z"/>
</g>
<g fill="#614400" fill-opacity="1.00" stroke="None">
<path d="
M 322.00 287.00 
C 322.00 282.00 322.00 277.00 322.00 272.00
C 320.33 273.67 319.83 285.47 322.00 287.00 Z"/>
</g>
<g fill="#0C0600" fill-opacity="1.00" stroke="None">
<path d="
M 322.00 287.00 
C 323.67 287.00 325.33 287.00 327.00 287.00
C 323.18 284.59 321.70 281.16 326.00 278.00
C 323.10 278.76 322.55 276.28 323.00 274.00
C 323.40 271.89 326.53 273.98 327.00 272.00
C 325.33 272.00 323.67 272.00 322.00 272.00
C 322.00 277.00 322.00 282.00 322.00 287.00 Z"/>
</g>
<g fill="#160D00" fill-opacity="1.00" stroke="None">
<path d="
M 341.00 287.00 
C 337.76 281.69 345.17 270.50 334.00 272.00
C 334.60 276.84 332.76 282.91 335.00 287.00
C 336.37 279.62 337.16 282.31 341.00 287.00
M 338.00 273.00 
C 340.26 274.03 339.23 280.79 336.30 279.64 C 333.37 278.49 335.14 271.70 338.00 273.00 Z"/>
</g>
<g fill="#020100" fill-opacity="1.00" stroke="None">
<path d="
M 349.00 287.00 
C 349.00 282.00 349.00 277.00 349.00 272.00
C 347.30 275.86 347.40 283.07 349.00 287.00 Z"/>
</g>
<g fill="#654600" fill-opacity="1.00" stroke="None">
<path d="
M 349.00 287.00 
C 350.70 283.14 350.60 275.93 349.00 272.00
C 349.00 277.00 349.00 282.00 349.00 287.00 Z"/>
</g>
<g fill="#614400" fill-opacity="1.00" stroke="None">
<path d="
M 357.00 287.00 
C 357.00 282.00 357.00 277.00 357.00 272.00
C 355.33 273.67 354.83 285.47 357.00 287.00 Z"/>
</g>
<g fill="#0C0600" fill-opacity="1.00" stroke="None">
<path d="
M 357.00 287.00 
C 358.67 287.00 360.33 287.00 362.00 287.00
C 358.18 284.59 356.70 281.16 361.00 278.00
C 358.10 278.76 357.55 276.28 358.00 274.00
C 358.40 271.89 361.53 273.98 362.00 272.00
C 360.33 272.00 358.67 272.00 357.00 272.00
C 357.00 277.00 357.00 282.00 357.00 287.00 Z"/>
</g>
<g fill="#E6A101" fill-opacity="1.00" stroke="None">
<path d="
M 142.00 273.00 
C 138.84 271.85 137.66 276.68 139.97 277.97 C 142.29 279.26 144.40 273.87 142.00 273.00 Z"/>
</g>
<g fill="#E8A301" fill-opacity="1.00" stroke="None">
<path d="
M 193.00 280.00 
C 200.94 276.78 190.15 268.62 193.00 280.00 Z"/>
</g>
<g fill="#DE9C01" fill-opacity="1.00" stroke="None">
<path d="
M 257.00 278.00 
C 257.30 276.93 257.09 273.66 256.00 273.00
C 249.18 271.99 255.18 284.50 257.00 278.00 Z"/>
</g>
<g fill="#5A3F00" fill-opacity="1.00" stroke="None">
<path d="
M 257.00 278.00 
C 257.79 276.74 258.94 273.44 256.00 273.00
C 257.09 273.66 257.30 276.93 257.00 278.00 Z"/>
</g>
<g fill="#D59501" fill-opacity="1.00" stroke="None">
<path d="
M 338.00 273.00 
C 335.14 271.70 333.37 278.49 336.30 279.64 C 339.23 280.79 340.26 274.03 338.00 273.00 Z"/>
</g>
<g fill="#BF8601" fill-opacity="1.00" stroke="None">
<path d="
M 155.00 276.00 
C 150.23 278.37 156.45 282.19 155.00 276.00 Z"/>
</g>
<g fill="#B98100" fill-opacity="1.00" stroke="None">
<path d="
M 267.00 276.00 
C 263.30 279.86 270.51 280.86 267.00 276.00 Z"/>
</g>
<g fill="#865E01" fill-opacity="1.00" stroke="None">
<path d="
M 278.00 286.00 
C 280.30 283.70 278.04 281.11 278.00 279.00
C 277.85 281.16 278.57 283.93 278.00 286.00 Z"/>
</g>
<g fill="#F3AA01" fill-opacity="1.00" stroke="None">
<path d="
M 142.00 280.00 
C 139.11 278.85 137.38 283.41 139.99 284.99 C 142.60 286.57 144.57 281.02 142.00 280.00 Z"/>
</g>
</svg>