<svg id="visual" viewBox="0 0 960 540" width="960" height="540" xmlns="http://www.w3.org/2000/svg" xmlns:xlink="http://www.w3.org/1999/xlink" version="1.1"><rect x="0" y="0" width="960" height="540" fill="#fff5e5"></rect><defs><linearGradient id="grad1_0" x1="43.8%" y1="0%" x2="100%" y2="100%"><stop offset="14.444444444444446%" stop-color="#fff5e5" stop-opacity="1"></stop><stop offset="85.55555555555554%" stop-color="#fff5e5" stop-opacity="1"></stop></linearGradient></defs><defs><linearGradient id="grad2_0" x1="0%" y1="0%" x2="56.3%" y2="100%"><stop offset="14.444444444444446%" stop-color="#fff5e5" stop-opacity="1"></stop><stop offset="85.55555555555554%" stop-color="#fff5e5" stop-opacity="1"></stop></linearGradient></defs><g transform="translate(960, 0)"><path d="M0 486C-47.2 441.5 -94.4 397 -157.7 380.6C-220.9 364.2 -300.3 375.9 -343.7 343.7C-387 311.4 -394.3 235.3 -412.1 170.7C-429.8 106.1 -457.9 53 -486 0L0 0Z" fill="#FBAE3C"></path></g><g transform="translate(0, 540)"><path d="M0 -486C45.1 -436.6 90.2 -387.1 153.8 -371.4C217.5 -355.7 299.6 -373.7 343.7 -343.7C387.7 -313.6 393.7 -235.6 411.1 -170.3C428.5 -105 457.3 -52.5 486 0L0 0Z" fill="#FBAE3C"></path></g></svg>