<svg id="visual" viewBox="0 0 960 540" width="960" height="540" xmlns="http://www.w3.org/2000/svg" xmlns:xlink="http://www.w3.org/1999/xlink" version="1.1"><rect x="0" y="0" width="960" height="540" fill="#fff5e5"></rect><path d="M0 402L22.8 391.7C45.7 381.3 91.3 360.7 137 351.8C182.7 343 228.3 346 274 354.7C319.7 363.3 365.3 377.7 411.2 375C457 372.3 503 352.7 548.8 340.7C594.7 328.7 640.3 324.3 686 321.5C731.7 318.7 777.3 317.3 823 318.5C868.7 319.7 914.3 323.3 937.2 325.2L960 327L960 541L937.2 541C914.3 541 868.7 541 823 541C777.3 541 731.7 541 686 541C640.3 541 594.7 541 548.8 541C503 541 457 541 411.2 541C365.3 541 319.7 541 274 541C228.3 541 182.7 541 137 541C91.3 541 45.7 541 22.8 541L0 541Z" fill="#d58830"></path><path d="M0 381L22.8 380C45.7 379 91.3 377 137 378.3C182.7 379.7 228.3 384.3 274 385.5C319.7 386.7 365.3 384.3 411.2 381.8C457 379.3 503 376.7 548.8 381.3C594.7 386 640.3 398 686 405C731.7 412 777.3 414 823 412.8C868.7 411.7 914.3 407.3 937.2 405.2L960 403L960 541L937.2 541C914.3 541 868.7 541 823 541C777.3 541 731.7 541 686 541C640.3 541 594.7 541 548.8 541C503 541 457 541 411.2 541C365.3 541 319.7 541 274 541C228.3 541 182.7 541 137 541C91.3 541 45.7 541 22.8 541L0 541Z" fill="#b7732e"></path><path d="M0 451L22.8 443.8C45.7 436.7 91.3 422.3 137 417.5C182.7 412.7 228.3 417.3 274 424.8C319.7 432.3 365.3 442.7 411.2 443.2C457 443.7 503 434.3 548.8 427.7C594.7 421 640.3 417 686 421.8C731.7 426.7 777.3 440.3 823 443.2C868.7 446 914.3 438 937.2 434L960 430L960 541L937.2 541C914.3 541 868.7 541 823 541C777.3 541 731.7 541 686 541C640.3 541 594.7 541 548.8 541C503 541 457 541 411.2 541C365.3 541 319.7 541 274 541C228.3 541 182.7 541 137 541C91.3 541 45.7 541 22.8 541L0 541Z" fill="#995f2b"></path><path d="M0 440L22.8 447.7C45.7 455.3 91.3 470.7 137 473.3C182.7 476 228.3 466 274 464.2C319.7 462.3 365.3 468.7 411.2 473.2C457 477.7 503 480.3 548.8 475.5C594.7 470.7 640.3 458.3 686 455C731.7 451.7 777.3 457.3 823 456.5C868.7 455.7 914.3 448.3 937.2 444.7L960 441L960 541L937.2 541C914.3 541 868.7 541 823 541C777.3 541 731.7 541 686 541C640.3 541 594.7 541 548.8 541C503 541 457 541 411.2 541C365.3 541 319.7 541 274 541C228.3 541 182.7 541 137 541C91.3 541 45.7 541 22.8 541L0 541Z" fill="#7b4c27"></path><path d="M0 491L22.8 489.2C45.7 487.3 91.3 483.7 137 480.5C182.7 477.3 228.3 474.7 274 480.7C319.7 486.7 365.3 501.3 411.2 502.5C457 503.7 503 491.3 548.8 487.8C594.7 484.3 640.3 489.7 686 494.5C731.7 499.3 777.3 503.7 823 503C868.7 502.3 914.3 496.7 937.2 493.8L960 491L960 541L937.2 541C914.3 541 868.7 541 823 541C777.3 541 731.7 541 686 541C640.3 541 594.7 541 548.8 541C503 541 457 541 411.2 541C365.3 541 319.7 541 274 541C228.3 541 182.7 541 137 541C91.3 541 45.7 541 22.8 541L0 541Z" fill="#5e3b22"></path></svg>