<svg id="visual" viewBox="0 0 960 540" width="960" height="540" xmlns="http://www.w3.org/2000/svg" xmlns:xlink="http://www.w3.org/1999/xlink" version="1.1"><g stroke-width="1" stroke-linejoin="bevel"><path d="M439.7 253L418.7 148L301 181Z" fill="#5e3b22" stroke="#5e3b22"></path><path d="M418.7 148L405.7 127L301 181Z" fill="#995f2b" stroke="#995f2b"></path><path d="M301 181L297 264L439.7 253Z" fill="#6a4224" stroke="#6a4224"></path><path d="M240.3 123L236.3 197L301 181Z" fill="#bd772f" stroke="#bd772f"></path><path d="M301 181L236.3 197L297 264Z" fill="#a5672c" stroke="#a5672c"></path><path d="M405.7 127L340 60L301 181Z" fill="#995f2b" stroke="#995f2b"></path><path d="M340 60L240.3 123L301 181Z" fill="#754926" stroke="#754926"></path><path d="M206.3 355L300 368L297 264Z" fill="#995f2b" stroke="#995f2b"></path><path d="M297 264L386.7 393L439.7 253Z" fill="#8d5729" stroke="#8d5729"></path><path d="M300 368L386.7 393L297 264Z" fill="#bd772f" stroke="#bd772f"></path><path d="M509.3 361L539.3 301L439.7 253Z" fill="#bd772f" stroke="#bd772f"></path><path d="M439.7 253L555.3 154L418.7 148Z" fill="#b16f2e" stroke="#b16f2e"></path><path d="M418.7 148L548.3 112L405.7 127Z" fill="#8d5729" stroke="#8d5729"></path><path d="M539.3 301L555.3 154L439.7 253Z" fill="#b16f2e" stroke="#b16f2e"></path><path d="M427.7 0L331 0L340 60Z" fill="#a5672c" stroke="#a5672c"></path><path d="M107.7 187L176.3 232L236.3 197Z" fill="#8d5729" stroke="#8d5729"></path><path d="M236.3 197L176.3 232L297 264Z" fill="#815028" stroke="#815028"></path><path d="M555.3 154L548.3 112L418.7 148Z" fill="#b16f2e" stroke="#b16f2e"></path><path d="M386.7 393L509.3 361L439.7 253Z" fill="#b16f2e" stroke="#b16f2e"></path><path d="M427.7 0L340 60L405.7 127Z" fill="#754926" stroke="#754926"></path><path d="M340 60L246.3 0L240.3 123Z" fill="#d58830" stroke="#d58830"></path><path d="M499.3 0L427.7 0L405.7 127Z" fill="#d58830" stroke="#d58830"></path><path d="M176.3 232L206.3 355L297 264Z" fill="#d58830" stroke="#d58830"></path><path d="M316 470L430.7 467L386.7 393Z" fill="#815028" stroke="#815028"></path><path d="M669 258L617 218L539.3 301Z" fill="#bd772f" stroke="#bd772f"></path><path d="M539.3 301L617 218L555.3 154Z" fill="#995f2b" stroke="#995f2b"></path><path d="M555.3 154L665 117L548.3 112Z" fill="#a5672c" stroke="#a5672c"></path><path d="M621 0L499.3 0L548.3 112Z" fill="#6a4224" stroke="#6a4224"></path><path d="M548.3 112L499.3 0L405.7 127Z" fill="#754926" stroke="#754926"></path><path d="M331 0L246.3 0L340 60Z" fill="#b16f2e" stroke="#b16f2e"></path><path d="M240.3 123L107.7 187L236.3 197Z" fill="#754926" stroke="#754926"></path><path d="M430.7 467L520.3 425L509.3 361Z" fill="#995f2b" stroke="#995f2b"></path><path d="M509.3 361L651 364L539.3 301Z" fill="#d58830" stroke="#d58830"></path><path d="M430.7 467L509.3 361L386.7 393Z" fill="#d58830" stroke="#d58830"></path><path d="M316 470L386.7 393L300 368Z" fill="#6a4224" stroke="#6a4224"></path><path d="M227.3 484L316 470L300 368Z" fill="#754926" stroke="#754926"></path><path d="M107.7 80L107.7 187L240.3 123Z" fill="#5e3b22" stroke="#5e3b22"></path><path d="M176.3 232L104.7 330L206.3 355Z" fill="#c97f2f" stroke="#c97f2f"></path><path d="M87.7 295L104.7 330L176.3 232Z" fill="#a5672c" stroke="#a5672c"></path><path d="M206.3 355L227.3 484L300 368Z" fill="#bd772f" stroke="#bd772f"></path><path d="M246.3 0L107.7 80L240.3 123Z" fill="#8d5729" stroke="#8d5729"></path><path d="M107.7 187L87.7 295L176.3 232Z" fill="#8d5729" stroke="#8d5729"></path><path d="M0 195L87.7 295L107.7 187Z" fill="#754926" stroke="#754926"></path><path d="M651 364L669 258L539.3 301Z" fill="#b16f2e" stroke="#b16f2e"></path><path d="M617 218L665 117L555.3 154Z" fill="#c97f2f" stroke="#c97f2f"></path><path d="M709.7 186L665 117L617 218Z" fill="#5e3b22" stroke="#5e3b22"></path><path d="M127.7 479L227.3 484L206.3 355Z" fill="#995f2b" stroke="#995f2b"></path><path d="M316 470L348 540L430.7 467Z" fill="#995f2b" stroke="#995f2b"></path><path d="M628 452L651 364L520.3 425Z" fill="#815028" stroke="#815028"></path><path d="M520.3 425L651 364L509.3 361Z" fill="#815028" stroke="#815028"></path><path d="M665 117L621 0L548.3 112Z" fill="#6a4224" stroke="#6a4224"></path><path d="M250.3 540L348 540L316 470Z" fill="#b16f2e" stroke="#b16f2e"></path><path d="M430.7 467L499.3 540L520.3 425Z" fill="#754926" stroke="#754926"></path><path d="M348 540L408.7 540L430.7 467Z" fill="#8d5729" stroke="#8d5729"></path><path d="M246.3 0L117.7 0L107.7 80Z" fill="#5e3b22" stroke="#5e3b22"></path><path d="M779.7 249L709.7 186L669 258Z" fill="#b16f2e" stroke="#b16f2e"></path><path d="M669 258L709.7 186L617 218Z" fill="#a5672c" stroke="#a5672c"></path><path d="M665 117L766.7 58L621 0Z" fill="#b16f2e" stroke="#b16f2e"></path><path d="M499.3 540L628 452L520.3 425Z" fill="#995f2b" stroke="#995f2b"></path><path d="M651 364L713.7 324L669 258Z" fill="#d58830" stroke="#d58830"></path><path d="M127.7 479L250.3 540L227.3 484Z" fill="#6a4224" stroke="#6a4224"></path><path d="M227.3 484L250.3 540L316 470Z" fill="#c97f2f" stroke="#c97f2f"></path><path d="M408.7 540L499.3 540L430.7 467Z" fill="#c97f2f" stroke="#c97f2f"></path><path d="M771.7 480L713.7 324L651 364Z" fill="#8d5729" stroke="#8d5729"></path><path d="M104.7 330L127.7 479L206.3 355Z" fill="#8d5729" stroke="#8d5729"></path><path d="M0 439L127.7 479L104.7 330Z" fill="#5e3b22" stroke="#5e3b22"></path><path d="M0 94L107.7 187L107.7 80Z" fill="#d58830" stroke="#d58830"></path><path d="M0 94L0 195L107.7 187Z" fill="#8d5729" stroke="#8d5729"></path><path d="M87.7 295L0 344L104.7 330Z" fill="#815028" stroke="#815028"></path><path d="M0 195L0 272L87.7 295Z" fill="#d58830" stroke="#d58830"></path><path d="M0 0L0 94L107.7 80Z" fill="#754926" stroke="#754926"></path><path d="M0 272L0 344L87.7 295Z" fill="#c97f2f" stroke="#c97f2f"></path><path d="M713.7 324L779.7 249L669 258Z" fill="#8d5729" stroke="#8d5729"></path><path d="M709.7 186L766.7 58L665 117Z" fill="#8d5729" stroke="#8d5729"></path><path d="M891.3 256L779.7 249L875.3 348Z" fill="#6a4224" stroke="#6a4224"></path><path d="M824.3 109L766.7 58L709.7 186Z" fill="#995f2b" stroke="#995f2b"></path><path d="M117.7 0L0 0L107.7 80Z" fill="#d58830" stroke="#d58830"></path><path d="M499.3 540L653 540L628 452Z" fill="#995f2b" stroke="#995f2b"></path><path d="M628 452L771.7 480L651 364Z" fill="#bd772f" stroke="#bd772f"></path><path d="M0 439L87.7 540L127.7 479Z" fill="#995f2b" stroke="#995f2b"></path><path d="M127.7 479L87.7 540L250.3 540Z" fill="#a5672c" stroke="#a5672c"></path><path d="M0 344L0 439L104.7 330Z" fill="#bd772f" stroke="#bd772f"></path><path d="M766.7 58L761.7 0L621 0Z" fill="#d58830" stroke="#d58830"></path><path d="M891.3 256L829.3 180L779.7 249Z" fill="#5e3b22" stroke="#5e3b22"></path><path d="M779.7 249L829.3 180L709.7 186Z" fill="#bd772f" stroke="#bd772f"></path><path d="M766.7 58L884.3 0L761.7 0Z" fill="#b16f2e" stroke="#b16f2e"></path><path d="M829.3 180L824.3 109L709.7 186Z" fill="#d58830" stroke="#d58830"></path><path d="M653 540L715.7 540L628 452Z" fill="#c97f2f" stroke="#c97f2f"></path><path d="M715.7 540L771.7 480L628 452Z" fill="#c97f2f" stroke="#c97f2f"></path><path d="M0 439L0 540L87.7 540Z" fill="#995f2b" stroke="#995f2b"></path><path d="M875.3 348L779.7 249L713.7 324Z" fill="#bd772f" stroke="#bd772f"></path><path d="M829.3 180L960 168L824.3 109Z" fill="#815028" stroke="#815028"></path><path d="M771.7 480L875.3 348L713.7 324Z" fill="#d58830" stroke="#d58830"></path><path d="M960 60L884.3 0L824.3 109Z" fill="#a5672c" stroke="#a5672c"></path><path d="M824.3 109L884.3 0L766.7 58Z" fill="#d58830" stroke="#d58830"></path><path d="M875.3 540L871.3 464L771.7 480Z" fill="#815028" stroke="#815028"></path><path d="M771.7 480L871.3 464L875.3 348Z" fill="#5e3b22" stroke="#5e3b22"></path><path d="M960 279L960 168L891.3 256Z" fill="#8d5729" stroke="#8d5729"></path><path d="M960 279L891.3 256L875.3 348Z" fill="#8d5729" stroke="#8d5729"></path><path d="M891.3 256L960 168L829.3 180Z" fill="#6a4224" stroke="#6a4224"></path><path d="M960 355L960 279L875.3 348Z" fill="#c97f2f" stroke="#c97f2f"></path><path d="M715.7 540L875.3 540L771.7 480Z" fill="#8d5729" stroke="#8d5729"></path><path d="M960 441L960 355L875.3 348Z" fill="#a5672c" stroke="#a5672c"></path><path d="M960 441L875.3 348L871.3 464Z" fill="#b16f2e" stroke="#b16f2e"></path><path d="M960 168L960 60L824.3 109Z" fill="#8d5729" stroke="#8d5729"></path><path d="M960 60L960 0L884.3 0Z" fill="#754926" stroke="#754926"></path><path d="M960 540L960 441L871.3 464Z" fill="#995f2b" stroke="#995f2b"></path><path d="M875.3 540L960 540L871.3 464Z" fill="#a5672c" stroke="#a5672c"></path></g></svg>