<svg id="visual" viewBox="0 0 960 540" width="960" height="540" xmlns="http://www.w3.org/2000/svg" xmlns:xlink="http://www.w3.org/1999/xlink" version="1.1"><path d="M0 109L14.5 107.2C29 105.3 58 101.7 87.2 111.5C116.3 121.3 145.7 144.7 174.8 149.2C204 153.7 233 139.3 262 148.3C291 157.3 320 189.7 349 191.5C378 193.3 407 164.7 436.2 149.5C465.3 134.3 494.7 132.7 523.8 131.8C553 131 582 131 611 124.7C640 118.3 669 105.7 698 106.5C727 107.3 756 121.7 785.2 136C814.3 150.3 843.7 164.7 872.8 182.7C902 200.7 931 222.3 945.5 233.2L960 244L960 0L945.5 0C931 0 902 0 872.8 0C843.7 0 814.3 0 785.2 0C756 0 727 0 698 0C669 0 640 0 611 0C582 0 553 0 523.8 0C494.7 0 465.3 0 436.2 0C407 0 378 0 349 0C320 0 291 0 262 0C233 0 204 0 174.8 0C145.7 0 116.3 0 87.2 0C58 0 29 0 14.5 0L0 0Z" fill="#e5ad6e"></path><path d="M0 195L14.5 190.5C29 186 58 177 87.2 185.2C116.3 193.3 145.7 218.7 174.8 223.2C204 227.7 233 211.3 262 222.2C291 233 320 271 349 275.5C378 280 407 251 436.2 227.5C465.3 204 494.7 186 523.8 184.3C553 182.7 582 197.3 611 194.7C640 192 669 172 698 172C727 172 756 192 785.2 210C814.3 228 843.7 244 872.8 258.3C902 272.7 931 285.3 945.5 291.7L960 298L960 242L945.5 231.2C931 220.3 902 198.7 872.8 180.7C843.7 162.7 814.3 148.3 785.2 134C756 119.7 727 105.3 698 104.5C669 103.7 640 116.3 611 122.7C582 129 553 129 523.8 129.8C494.7 130.7 465.3 132.3 436.2 147.5C407 162.7 378 191.3 349 189.5C320 187.7 291 155.3 262 146.3C233 137.3 204 151.7 174.8 147.2C145.7 142.7 116.3 119.3 87.2 109.5C58 99.7 29 103.3 14.5 105.2L0 107Z" fill="#dd9b50"></path><path d="M0 228L14.5 228C29 228 58 228 87.2 237.8C116.3 247.7 145.7 267.3 174.8 271.8C204 276.3 233 265.7 262 279.2C291 292.7 320 330.3 349 340.2C378 350 407 332 436.2 304.2C465.3 276.3 494.7 238.7 523.8 236.8C553 235 582 269 611 275.3C640 281.7 669 260.3 698 252.3C727 244.3 756 249.7 785.2 259.5C814.3 269.3 843.7 283.7 872.8 299.8C902 316 931 334 945.5 343L960 352L960 296L945.5 289.7C931 283.3 902 270.7 872.8 256.3C843.7 242 814.3 226 785.2 208C756 190 727 170 698 170C669 170 640 190 611 192.7C582 195.3 553 180.7 523.8 182.3C494.7 184 465.3 202 436.2 225.5C407 249 378 278 349 273.5C320 269 291 231 262 220.2C233 209.3 204 225.7 174.8 221.2C145.7 216.7 116.3 191.3 87.2 183.2C58 175 29 184 14.5 188.5L0 193Z" fill="#d58830"></path><path d="M0 406L14.5 408.7C29 411.3 58 416.7 87.2 425.7C116.3 434.7 145.7 447.3 174.8 449.2C204 451 233 442 262 441.2C291 440.3 320 447.7 349 453C378 458.3 407 461.7 436.2 449C465.3 436.3 494.7 407.7 523.8 398.7C553 389.7 582 400.3 611 415.7C640 431 669 451 698 463.7C727 476.3 756 481.7 785.2 485.2C814.3 488.7 843.7 490.3 872.8 485C902 479.7 931 467.3 945.5 461.2L960 455L960 350L945.5 341C931 332 902 314 872.8 297.8C843.7 281.7 814.3 267.3 785.2 257.5C756 247.7 727 242.3 698 250.3C669 258.3 640 279.7 611 273.3C582 267 553 233 523.8 234.8C494.7 236.7 465.3 274.3 436.2 302.2C407 330 378 348 349 338.2C320 328.3 291 290.7 262 277.2C233 263.7 204 274.3 174.8 269.8C145.7 265.3 116.3 245.7 87.2 235.8C58 226 29 226 14.5 226L0 226Z" fill="#b8762a"></path><path d="M0 541L14.5 541C29 541 58 541 87.2 541C116.3 541 145.7 541 174.8 541C204 541 233 541 262 541C291 541 320 541 349 541C378 541 407 541 436.2 541C465.3 541 494.7 541 523.8 541C553 541 582 541 611 541C640 541 669 541 698 541C727 541 756 541 785.2 541C814.3 541 843.7 541 872.8 541C902 541 931 541 945.5 541L960 541L960 453L945.5 459.2C931 465.3 902 477.7 872.8 483C843.7 488.3 814.3 486.7 785.2 483.2C756 479.7 727 474.3 698 461.7C669 449 640 429 611 413.7C582 398.3 553 387.7 523.8 396.7C494.7 405.7 465.3 434.3 436.2 447C407 459.7 378 456.3 349 451C320 445.7 291 438.3 262 439.2C233 440 204 449 174.8 447.2C145.7 445.3 116.3 432.7 87.2 423.7C58 414.7 29 409.3 14.5 406.7L0 404Z" fill="#9c6424"></path></svg>